<svg xmlns="http://www.w3.org/2000/svg" viewBox="0 0 57.8127 99.2733">
  <g id="full-rgb">
    <path id="logoMark" d="M57.6657,32.19A7.0253,7.0253,0,0,0,53.84,26.53l-3.3144-1.6036V21.6194a21.6194,21.6194,0,1,0-43.2388,0v3.484l-3.401,1.69A7.0249,7.0249,0,0,0,.1279,32.4983L0,34.14l3.8159-1.01.182.1724A5.2357,5.2357,0,0,0,7.287,34.7379v4.5245a21.6194,21.6194,0,1,0,43.2388,0V34.7487a5.2324,5.2324,0,0,0,3.6056-1.4461l.3332-.3162,3.3481.8437ZM8.5756,21.6194a20.3308,20.3308,0,0,1,40.6616,0v2.6838l-.9523-.4607V21.6414a19.3786,19.3786,0,1,0-38.7571,0V23.99l-.9522.4733Zm19.6962-5.4052h1.3456a3.6741,3.6741,0,0,1,3.3247-3.6528c1.4543,5.59,2.396,13.2055-.2338,20.2014a19.2332,19.2332,0,0,1-3.6966,6.241l-.0162-.0183-.0287.0331c-7.42-9.7508-5.1193-22.2947-4.0612-26.46A3.6736,3.6736,0,0,1,28.2718,16.2142Zm-3.0273-4.8526A3.8665,3.8665,0,0,1,28.93,8.7625a3.6817,3.6817,0,0,1,3.61,2.3421c.0251.0856.05.1738.0747.2607a4.9065,4.9065,0,0,0-3.67,2.5912A4.9056,4.9056,0,0,0,25.2445,11.3616Zm8.5817,21.9122L40.95,35.3124a4.0093,4.0093,0,0,1-3.2934.5917l-4.3628-1.34q.2733-.6108.5324-1.2887Zm.5279,13.6136a2.5505,2.5505,0,0,1,.5137,1.4788l.1237,1.9719-5.969-3.6026L23.0872,50.45l.1088-1.9622a2.5856,2.5856,0,0,1,.505-1.4931l5.3061-6.1458Zm-9.422-12.3486-4.4558,1.3645a4.011,4.011,0,0,1-3.2967-.5909l7.23-2.0659C24.5717,33.6783,24.7447,34.1093,24.9321,34.5388Zm-.9291-2.4542-10.0167,2.78a4.0111,4.0111,0,0,1-3.4433-.6973L23.5681,30.618Q23.7636,31.3506,24.003,32.0846ZM10.8164,35.7539a5.2147,5.2147,0,0,0,2.1563.466,5.3077,5.3077,0,0,0,1.318-.1669l1.43-.3666.1325.1257a5.2317,5.2317,0,0,0,3.61,1.4459,5.3206,5.3206,0,0,0,1.3212-.1674l4.6741-1.4218A25.1773,25.1773,0,0,0,28.15,39.9653L22.7727,46.193a3.7775,3.7775,0,0,0-.8015,2.2266l-.24,4.3258,7.303-4.57L36.362,52.598l-.27-4.3087a3.7393,3.7393,0,0,0-.82-2.215l-5.4417-6.1457a18.4729,18.4729,0,0,0,2.922-4.2384l4.5959,1.4013a5.3114,5.3114,0,0,0,1.3178.1669,5.2339,5.2339,0,0,0,3.61-1.4464l.1323-.1256,1.43.3667a5.3114,5.3114,0,0,0,1.3178.1669,5.2135,5.2135,0,0,0,1.84-.3363V39.24a18.09,18.09,0,1,1-36.18,0Zm33.3266-.889-9.911-2.7531q.2373-.7316.4288-1.4682L47.586,34.1675A4.0114,4.0114,0,0,1,44.143,34.8649ZM33.7176,10.76A4.8578,4.8578,0,0,0,28.93,7.536a5.1294,5.1294,0,0,0-3.7123,1.5715,5.2058,5.2058,0,0,0-1.2347,2.1678A38.6129,38.6129,0,0,0,22.778,17.404L10.8164,23.3492V21.6414a18.09,18.09,0,1,1,36.18,0v1.5775L35.19,17.5063A48.4931,48.4931,0,0,0,33.7176,10.76ZM1.3577,32.5119A5.8037,5.8037,0,0,1,4.4562,27.88L22.633,18.8655a37.1679,37.1679,0,0,0,.1573,7.785Zm21.615-4.6409q.1311.7733.3047,1.5554L8.6211,33.3937a4.01,4.01,0,0,1-3.3725-.6427Zm-13.2183,7.24L9.75,35.1093l-.0055-.0068Zm33.528,18.5279A20.3308,20.3308,0,0,1,8.5756,39.2624V34.659q.1752-.0327.35-.0771l.1854-.0474.2522.2392c.0541.0512.1092.1.1649.149V39.24a19.3786,19.3786,0,1,0,38.7571,0V35.1772a5.3236,5.3236,0,0,0,.4811-.4036l.2523-.2392.1855.0475.0334.008v4.6725A20.1979,20.1979,0,0,1,43.2824,53.6384Zm6.2257-20.2447L34.9451,29.45q.1631-.7675.2818-1.5362L53.04,32.6273A4.0118,4.0118,0,0,1,49.5081,33.3937ZM35.39,26.69a35.42,35.42,0,0,0-.0167-7.7137l17.91,8.6466a5.8039,5.8039,0,0,1,3.1532,4.5952Z" style="fill: #bf9c6e"/>
    <g id="type">
      <polygon id="type_PathItem_" data-name="type &lt;PathItem&gt;" points="13.333 99.207 13.989 99.207 13.989 97.21 16.046 97.21 16.046 96.568 13.989 96.568 13.989 95.146 16.312 95.146 16.312 94.504 13.333 94.504 13.333 99.207" style="fill: #bf9c6e"/>
      <path id="type_CompoundPathItem_" data-name="type &lt;CompoundPathItem&gt;" d="M21.2822,94.4309a2.4219,2.4219,0,1,0,2.3645,2.4311A2.4012,2.4012,0,0,0,21.2822,94.4309Zm1.7091,2.4311a1.7109,1.7109,0,1,1-1.7091-1.7889A1.7419,1.7419,0,0,1,22.9913,96.862Z" style="fill: #bf9c6e"/>
      <path id="type_CompoundPathItem_2" data-name="type &lt;CompoundPathItem&gt;" d="M28.9165,94.4309A2.4219,2.4219,0,1,0,31.281,96.862,2.4013,2.4013,0,0,0,28.9165,94.4309Zm1.7091,2.4311a1.7109,1.7109,0,1,1-1.7091-1.7889A1.7419,1.7419,0,0,1,30.6256,96.862Z" style="fill: #bf9c6e"/>
      <path id="type_CompoundPathItem_3" data-name="type &lt;CompoundPathItem&gt;" d="M37.6718,95.1433a2.7819,2.7819,0,0,0-1.8867-.6393H34.4522v4.7027h1.446a2.3017,2.3017,0,0,0,2.5044-2.3512A2.2171,2.2171,0,0,0,37.6718,95.1433Zm.0754,1.7122a1.7093,1.7093,0,0,1-1.922,1.7091h-.7176V95.1461h.7176A1.7094,1.7094,0,0,1,37.7472,96.8555Z" style="fill: #bf9c6e"/>
      <path id="type_CompoundPathItem_4" data-name="type &lt;CompoundPathItem&gt;" d="M42.9153,96.4286h0c-.6521-.2049-1.0516-.351-1.0516-.7581,0-.3575.3793-.5974.9437-.5974a1.31,1.31,0,0,1,.9848.4266l.1425.1991.5-.44-.1157-.1625a1.8894,1.8894,0,0,0-1.5115-.6653c-.9565,0-1.5991.5036-1.5991,1.2529,0,.8917.8212,1.1485,1.4813,1.3552.7059.2207,1.1346.39,1.1346.8814,0,.445-.38.7107-1.0168.7107a1.4918,1.4918,0,0,1-1.1863-.5376l-.1482-.182-.4825.4422.1237.1612a2.1043,2.1043,0,0,0,1.7.7584c1.0118,0,1.6657-.5441,1.6657-1.3862C44.4794,96.92,43.6121,96.6475,42.9153,96.4286Zm-.04.1269Z" style="fill: #bf9c6e"/>
      <path id="type_PathItem_2" data-name="type &lt;PathItem&gt;" d="M46.4807,88.0065h4.5084c.1362,0,.453-.0244.453-.2507V87.669c0-.1851-.1726-.33-.3909-.5137a1.68,1.68,0,0,1-.7651-1.3647V70.04a1.6912,1.6912,0,0,1,.7538-1.3607c.2249-.1927.4022-.3446.4022-.5468V68.046c0-.2263-.3168-.2507-.453-.2507H46.4807c-.1362,0-.453.0244-.453.2507v.0866c0,.2056.1558.35.3715.55A1.7208,1.7208,0,0,1,47.097,70.04V85.7906a1.7072,1.7072,0,0,1-.7071,1.3607c-.21.1911-.3622.3291-.3622.5177v.0868C46.0277,87.9821,46.3445,88.0065,46.4807,88.0065Z" style="fill: #bf9c6e"/>
      <path id="type_PathItem_3" data-name="type &lt;PathItem&gt;" d="M20.5462,87.0443l-.0391.0479a3.08,3.08,0,0,1-1.0267-1.27L12.2264,68.8a1.37,1.37,0,0,0-1.4191-1.0047H8.5243c-.1015,0-.3375.0244-.3375.2507v.0868c0,.1525.1947.3591.3829.5589.3681.3906.8255.8759.56,1.55L3.0611,85.8176a2.9056,2.9056,0,0,1-1.0378,1.3c-.2563.2-.4256.3325-.4256.5515v.0868c0,.2263.3168.2507.453.2507H5.3164c.18,0,.482-.0326.482-.2507V87.669c0-.1756-.2021-.3239-.4361-.4955-.3907-.2868-.9259-.68-.623-1.4671l5.4573-14.6817.0592.1508,5.6944,14.53c.3033.7885-.2318,1.1814-.6225,1.4682-.2341.1716-.4361.32-.4361.4955v.0868c0,.2263.3169.2507.4531.2507h5.1441c.1363,0,.453-.0244.453-.2507V87.669c0-.2265-.1728-.3657-.4343-.5764l0,0,.0388-.0482Z" style="fill: #bf9c6e"/>
      <path id="type_PathItem_4" data-name="type &lt;PathItem&gt;" d="M22.0724,68.7576l.0391-.0479a3.08,3.08,0,0,1,1.0267,1.27l7.254,17.0223a1.37,1.37,0,0,0,1.419,1.0047h2.2831c.1014,0,.3374-.0244.3374-.2507v-.0866c0-.1529-.1949-.36-.3833-.56-.3676-.39-.8249-.8754-.5595-1.5489l6.0686-15.5764a2.9061,2.9061,0,0,1,1.0379-1.3c.2561-.2.4255-.3325.4255-.5515V68.046c0-.2263-.3168-.2507-.453-.2507H37.3022c-.18,0-.482.0326-.482.2507v.0868c0,.1754.2018.3236.4355.4951.3913.2873.9264.68.6236,1.4675L32.422,84.7772l-.0592-.1507-5.6945-14.53c-.3034-.7885.2319-1.1813.6227-1.4681.2343-.1721.436-.32.436-.4956V68.046c0-.2263-.3168-.2507-.453-.2507H22.13c-.1362,0-.453.0244-.453.2507v.0868c0,.2266.1729.3659.4344.5766l-.0387.0482Z" style="fill: #bf9c6e"/>
    </g>
  </g>
</svg>
